<svg width="35" height="35" fill="none" xmlns="http://www.w3.org/2000/svg"><path d="M22.31 19.302c1.113-.718 1.604-2.245 1.808-3.196-1.034-.22-2.599-.345-3.653.335-1.113.718-1.604 2.245-1.808 3.196 1.034.22 2.599.346 3.653-.335z" fill="url(#paint0_linear_12:166)"/><path d="M17.5 6.152c-6.257 0-11.348 5.09-11.348 11.348 0 5.912 4.544 10.78 10.323 11.3v-7.1a9.893 9.893 0 01-.74.11 8.787 8.787 0 01-.969.056c-1.239 0-2.328-.286-3.188-.84-1.079-.697-1.918-1.895-2.429-3.465a10.042 10.042 0 01-.446-2.12l-.06-.776.732-.266c.038-.013.934-.335 2.115-.466 1.641-.183 3.079.09 4.157.785.74.477 1.367 1.19 1.853 2.098.486-.907 1.113-1.62 1.853-2.098 1.078-.696 2.516-.968 4.157-.785a10.04 10.04 0 012.115.466l.732.266-.06.777c-.003.04-.079.988-.446 2.119-.51 1.57-1.35 2.768-2.429 3.464-.86.555-1.95.84-3.188.84-.314 0-.637-.018-.969-.055a9.893 9.893 0 01-.74-.11v7.1c5.779-.52 10.323-5.389 10.323-11.3 0-6.257-5.09-11.348-11.348-11.348z" fill="url(#paint1_linear_12:166)"/><path d="M14.536 16.441c-1.056-.681-2.623-.555-3.658-.334.225 1.033.756 2.514 1.812 3.195 1.112.718 2.706.536 3.657.33-.226-1.033-.757-2.51-1.812-3.19z" fill="url(#paint2_linear_12:166)"/><path d="M29.874 5.126A17.386 17.386 0 0017.5 0C12.826 0 8.431 1.82 5.126 5.126A17.386 17.386 0 000 17.5c0 4.674 1.82 9.069 5.126 12.374A17.386 17.386 0 0017.5 35c4.674 0 9.069-1.82 12.374-5.126A17.386 17.386 0 0035 17.5c0-4.674-1.82-9.069-5.126-12.374zM17.5 30.898c-7.388 0-13.398-6.01-13.398-13.398S10.112 4.102 17.5 4.102s13.398 6.01 13.398 13.398-6.01 13.398-13.398 13.398z" fill="url(#paint3_linear_12:166)"/><defs><linearGradient id="paint0_linear_12:166" x1="8.246" y1="0" x2="37.792" y2="8.226" gradientUnits="userSpaceOnUse"><stop stop-color="#E2F685"/><stop offset="1" stop-color="#8AF9AD"/></linearGradient><linearGradient id="paint1_linear_12:166" x1="8.246" y1="0" x2="37.792" y2="8.226" gradientUnits="userSpaceOnUse"><stop stop-color="#E2F685"/><stop offset="1" stop-color="#8AF9AD"/></linearGradient><linearGradient id="paint2_linear_12:166" x1="8.246" y1="0" x2="37.792" y2="8.226" gradientUnits="userSpaceOnUse"><stop stop-color="#E2F685"/><stop offset="1" stop-color="#8AF9AD"/></linearGradient><linearGradient id="paint3_linear_12:166" x1="8.246" y1="0" x2="37.792" y2="8.226" gradientUnits="userSpaceOnUse"><stop stop-color="#E2F685"/><stop offset="1" stop-color="#8AF9AD"/></linearGradient></defs></svg>