<svg class="revolution__card-svg" width="34" height="34" fill="none" xmlns="http://www.w3.org/2000/svg"><path d="M.463 17.044a.708.708 0 00-.42.907l.445 1.224 3.387-3.388-3.412 1.257zm3.207 10.88l2.04 5.61a.702.702 0 00.665.466.693.693 0 00.245-.044l2.251-.83-5.202-5.202zm30.287-4.79l-2.335-6.419-5.603 5.603 2.777-1.023a.705.705 0 01.91.42.707.707 0 01-.42.91l-3.527 1.3a.706.706 0 01-.91-.42l-.001-.012-5.937 5.937 14.625-5.39a.706.706 0 00.42-.906zm-.165-11.594L22.46.207a.709.709 0 00-1.001 0L.208 21.457a.709.709 0 000 1.002l11.333 11.333a.711.711 0 001.002.001l21.25-21.25a.71.71 0 000-1.003zM8.293 19.627L5.46 22.46a.712.712 0 01-1.003 0 .709.709 0 010-1.002l2.833-2.833a.709.709 0 011.003 1.002zm12.233.9c-.502.5-1.183.741-1.941.741-1.253 0-2.716-.655-3.94-1.88-.895-.896-1.524-1.967-1.77-3.015-.271-1.17-.047-2.186.631-2.866.679-.68 1.696-.904 2.866-.63 1.048.244 2.12.872 3.015 1.769 1.967 1.966 2.469 4.55 1.139 5.88zm9.016-7.984l-2.833 2.834a.712.712 0 01-1.003 0 .709.709 0 010-1.002l2.833-2.833a.709.709 0 011.003 1.001z" fill="url(#paint0_linear_12:166)"/></svg>