<svg width="32" height="31" fill="none" xmlns="http://www.w3.org/2000/svg"><path d="M15.397 15.561l-2.383 14.524c-.127.768.836 1.231 1.374.66l15.825-16.802c.52-.552.032-1.439-.722-1.31l-13.44 2.278a.793.793 0 00-.654.65z" fill="url(#paint0_linear_12:109)"/><path d="M14.37 10.752l6.929-8.681c.402-.504.057-1.244-.593-1.273L2.372.001c-.762-.033-1.133.903-.55 1.387l11.405 9.48a.807.807 0 001.143-.116z" fill="url(#paint1_linear_12:109)"/><path d="M31.762 7.79l-5.535-5.383a.807.807 0 00-1.19.073l-5.836 7.312c-.452.567.043 1.384.764 1.262l11.37-1.928a.783.783 0 00.427-1.335z" fill="url(#paint2_linear_12:109)"/><path d="M.053 5.962l8.46 22.594c.284.76 1.407.652 1.538-.147l2.248-13.695a.78.78 0 00-.274-.727L1.318 5.088c-.627-.52-1.549.116-1.265.874z" fill="url(#paint3_linear_12:109)"/><defs><linearGradient id="paint0_linear_12:109" x1="7.539" y1="0" x2="34.426" y2="7.727" gradientUnits="userSpaceOnUse"><stop stop-color="#E2F685"/><stop offset="1" stop-color="#8AF9AD"/></linearGradient><linearGradient id="paint1_linear_12:109" x1="7.539" y1="0" x2="34.426" y2="7.727" gradientUnits="userSpaceOnUse"><stop stop-color="#E2F685"/><stop offset="1" stop-color="#8AF9AD"/></linearGradient><linearGradient id="paint2_linear_12:109" x1="7.539" y1="0" x2="34.426" y2="7.727" gradientUnits="userSpaceOnUse"><stop stop-color="#E2F685"/><stop offset="1" stop-color="#8AF9AD"/></linearGradient><linearGradient id="paint3_linear_12:109" x1="7.539" y1="0" x2="34.426" y2="7.727" gradientUnits="userSpaceOnUse"><stop stop-color="#E2F685"/><stop offset="1" stop-color="#8AF9AD"/></linearGradient></defs></svg>