<svg viewBox="0 0 35 37" xmlns="http://www.w3.org/2000/svg" xmlns:xlink="http://www.w3.org/1999/xlink"><style>:root&gt;svg{display:none}:root&gt;svg:target{display:block}</style><svg fill="none" viewBox="0 0 28 26" id="entry-btn" xmlns="http://www.w3.org/2000/svg"><path d="M20.638 13.613l-8.706 8.666a.87.87 0 01-1.23 0 .863.863 0 010-1.225l7.219-7.187H.87A.869.869 0 010 13c0-.479.39-.867.87-.867h17.05l-7.219-7.187a.863.863 0 010-1.225.873.873 0 011.231 0l8.706 8.666c.34.339.34.887 0 1.226zm7.22 7.187V5.2c0-2.867-2.344-5.2-5.224-5.2H16.54c-.48 0-.87.388-.87.867 0 .478.39.866.87.866h6.094A3.479 3.479 0 0126.116 5.2v15.6a3.479 3.479 0 01-3.482 3.467H16.54c-.48 0-.87.388-.87.866 0 .479.39.867.87.867h6.094c2.88 0 5.223-2.333 5.223-5.2z" fill="#B4F299"/></svg><svg fill="none" viewBox="0 0 35 35" id="gain" xmlns="http://www.w3.org/2000/svg"><path d="M22.31 19.302c1.113-.718 1.604-2.245 1.808-3.196-1.034-.22-2.599-.345-3.653.335-1.113.718-1.604 2.245-1.808 3.196 1.034.22 2.599.346 3.653-.335z" fill="url(#bpaint0_linear_12:166)"/><path d="M17.5 6.152c-6.257 0-11.348 5.09-11.348 11.348 0 5.912 4.544 10.78 10.323 11.3v-7.1a9.893 9.893 0 01-.74.11 8.787 8.787 0 01-.969.056c-1.239 0-2.328-.286-3.188-.84-1.079-.697-1.918-1.895-2.429-3.465a10.042 10.042 0 01-.446-2.12l-.06-.776.732-.266c.038-.013.934-.335 2.115-.466 1.641-.183 3.079.09 4.157.785.74.477 1.367 1.19 1.853 2.098.486-.907 1.113-1.62 1.853-2.098 1.078-.696 2.516-.968 4.157-.785a10.04 10.04 0 012.115.466l.732.266-.06.777c-.003.04-.079.988-.446 2.119-.51 1.57-1.35 2.768-2.429 3.464-.86.555-1.95.84-3.188.84-.314 0-.637-.018-.969-.055a9.893 9.893 0 01-.74-.11v7.1c5.779-.52 10.323-5.389 10.323-11.3 0-6.257-5.09-11.348-11.348-11.348z" fill="url(#bpaint1_linear_12:166)"/><path d="M14.536 16.441c-1.056-.681-2.623-.555-3.658-.334.225 1.033.756 2.514 1.812 3.195 1.112.718 2.706.536 3.657.33-.226-1.033-.757-2.51-1.812-3.19z" fill="url(#bpaint2_linear_12:166)"/><path d="M29.874 5.126A17.386 17.386 0 0017.5 0C12.826 0 8.431 1.82 5.126 5.126A17.386 17.386 0 000 17.5c0 4.674 1.82 9.069 5.126 12.374A17.386 17.386 0 0017.5 35c4.674 0 9.069-1.82 12.374-5.126A17.386 17.386 0 0035 17.5c0-4.674-1.82-9.069-5.126-12.374zM17.5 30.898c-7.388 0-13.398-6.01-13.398-13.398S10.112 4.102 17.5 4.102s13.398 6.01 13.398 13.398-6.01 13.398-13.398 13.398z" fill="url(#bpaint3_linear_12:166)"/><defs><linearGradient id="bpaint0_linear_12:166" x1="8.246" y1="0" x2="37.792" y2="8.226" gradientUnits="userSpaceOnUse"><stop stop-color="#E2F685"/><stop offset="1" stop-color="#8AF9AD"/></linearGradient><linearGradient id="bpaint1_linear_12:166" x1="8.246" y1="0" x2="37.792" y2="8.226" gradientUnits="userSpaceOnUse"><stop stop-color="#E2F685"/><stop offset="1" stop-color="#8AF9AD"/></linearGradient><linearGradient id="bpaint2_linear_12:166" x1="8.246" y1="0" x2="37.792" y2="8.226" gradientUnits="userSpaceOnUse"><stop stop-color="#E2F685"/><stop offset="1" stop-color="#8AF9AD"/></linearGradient><linearGradient id="bpaint3_linear_12:166" x1="8.246" y1="0" x2="37.792" y2="8.226" gradientUnits="userSpaceOnUse"><stop stop-color="#E2F685"/><stop offset="1" stop-color="#8AF9AD"/></linearGradient></defs></svg><svg fill="none" viewBox="0 0 33 37" id="lottery" xmlns="http://www.w3.org/2000/svg"><path d="M31.931 14.89l-6.736 4.443a8.654 8.654 0 01-.206 3.639l6.592 4.348c1.756-3.9 1.893-8.4.35-12.43z" fill="url(#cpaint0_linear_12:131)"/><path d="M24.543 17.147l6.46-4.26a16.468 16.468 0 00-5.966-6.183l-4.282 6.354a8.799 8.799 0 013.788 4.089z" fill="url(#cpaint1_linear_12:131)"/><path d="M16.5 14.147c-3.64 0-6.6 2.929-6.6 6.53 0 3.6 2.96 6.529 6.6 6.529 3.64 0 6.6-2.93 6.6-6.53s-2.96-6.53-6.6-6.53zm0 10.882c-2.426 0-4.4-1.953-4.4-4.353 0-2.4 1.974-4.353 4.4-4.353s4.4 1.953 4.4 4.353c0 2.4-1.974 4.353-4.4 4.353z" fill="url(#cpaint2_linear_12:131)"/><path d="M20.208 28.57l4.302 6.384a16.592 16.592 0 006.035-5.702l-6.42-4.234a8.824 8.824 0 01-3.917 3.552z" fill="url(#cpaint3_linear_12:131)"/><path d="M16.5 22.853c1.215 0 2.2-.975 2.2-2.177a2.188 2.188 0 00-2.2-2.176c-1.215 0-2.2.974-2.2 2.176 0 1.202.985 2.177 2.2 2.177z" fill="url(#cpaint4_linear_12:131)"/><path d="M14.977 29.251l-4.475 6.64a16.781 16.781 0 0011.996 0l-4.475-6.64a8.928 8.928 0 01-3.046 0z" fill="url(#cpaint5_linear_12:131)"/><path d="M18.665 12.237l4.406-6.539a16.527 16.527 0 00-2.941-.948c-1.045 2.086-2.563 4.036-3.63 5.609-1.063-1.57-2.582-3.517-3.63-5.609a16.543 16.543 0 00-2.941.948l4.406 6.54a8.913 8.913 0 014.33 0z" fill="url(#cpaint6_linear_12:131)"/><path d="M8.875 25.018l-6.42 4.234a16.595 16.595 0 006.035 5.702l4.302-6.384a8.823 8.823 0 01-3.917-3.552z" fill="url(#cpaint7_linear_12:131)"/><path d="M7.805 19.333L1.07 14.89a16.226 16.226 0 00.35 12.43l6.592-4.348a8.632 8.632 0 01-.206-3.64z" fill="url(#cpaint8_linear_12:131)"/><path d="M12.245 13.058L7.963 6.704a16.469 16.469 0 00-5.965 6.183l6.459 4.26a8.798 8.798 0 013.788-4.089z" fill="url(#cpaint9_linear_12:131)"/><path d="M18.7 2.176C18.7.974 17.715 0 16.5 0c-1.215 0-2.2.974-2.2 2.176 0 1.202 2.2 4.353 2.2 4.353s2.2-3.15 2.2-4.353z" fill="url(#cpaint10_linear_12:131)"/><defs><linearGradient id="cpaint0_linear_12:131" x1="7.775" y1="0" x2="36.048" y2="7.02" gradientUnits="userSpaceOnUse"><stop stop-color="#E2F685"/><stop offset="1" stop-color="#8AF9AD"/></linearGradient><linearGradient id="cpaint1_linear_12:131" x1="7.775" y1="0" x2="36.048" y2="7.02" gradientUnits="userSpaceOnUse"><stop stop-color="#E2F685"/><stop offset="1" stop-color="#8AF9AD"/></linearGradient><linearGradient id="cpaint2_linear_12:131" x1="7.775" y1="0" x2="36.048" y2="7.02" gradientUnits="userSpaceOnUse"><stop stop-color="#E2F685"/><stop offset="1" stop-color="#8AF9AD"/></linearGradient><linearGradient id="cpaint3_linear_12:131" x1="7.775" y1="0" x2="36.048" y2="7.02" gradientUnits="userSpaceOnUse"><stop stop-color="#E2F685"/><stop offset="1" stop-color="#8AF9AD"/></linearGradient><linearGradient id="cpaint4_linear_12:131" x1="7.775" y1="0" x2="36.048" y2="7.02" gradientUnits="userSpaceOnUse"><stop stop-color="#E2F685"/><stop offset="1" stop-color="#8AF9AD"/></linearGradient><linearGradient id="cpaint5_linear_12:131" x1="7.775" y1="0" x2="36.048" y2="7.02" gradientUnits="userSpaceOnUse"><stop stop-color="#E2F685"/><stop offset="1" stop-color="#8AF9AD"/></linearGradient><linearGradient id="cpaint6_linear_12:131" x1="7.775" y1="0" x2="36.048" y2="7.02" gradientUnits="userSpaceOnUse"><stop stop-color="#E2F685"/><stop offset="1" stop-color="#8AF9AD"/></linearGradient><linearGradient id="cpaint7_linear_12:131" x1="7.775" y1="0" x2="36.048" y2="7.02" gradientUnits="userSpaceOnUse"><stop stop-color="#E2F685"/><stop offset="1" stop-color="#8AF9AD"/></linearGradient><linearGradient id="cpaint8_linear_12:131" x1="7.775" y1="0" x2="36.048" y2="7.02" gradientUnits="userSpaceOnUse"><stop stop-color="#E2F685"/><stop offset="1" stop-color="#8AF9AD"/></linearGradient><linearGradient id="cpaint9_linear_12:131" x1="7.775" y1="0" x2="36.048" y2="7.02" gradientUnits="userSpaceOnUse"><stop stop-color="#E2F685"/><stop offset="1" stop-color="#8AF9AD"/></linearGradient><linearGradient id="cpaint10_linear_12:131" x1="7.775" y1="0" x2="36.048" y2="7.02" gradientUnits="userSpaceOnUse"><stop stop-color="#E2F685"/><stop offset="1" stop-color="#8AF9AD"/></linearGradient></defs></svg><svg fill="none" viewBox="0 0 32 20" id="mob-menu-btn" xmlns="http://www.w3.org/2000/svg"><path fill="#B4F299" d="M0 0h31.818v1.818H0zm7.273 9.091h18.182v1.818H7.273zm4.545 9.091h9.091V20h-9.091z"/></svg><svg class="erevolution__card-svg" fill="none" viewBox="0 0 34 34" id="stake" xmlns="http://www.w3.org/2000/svg"><path d="M.463 17.044a.708.708 0 00-.42.907l.445 1.224 3.387-3.388-3.412 1.257zm3.207 10.88l2.04 5.61a.702.702 0 00.665.466.693.693 0 00.245-.044l2.251-.83-5.202-5.202zm30.287-4.79l-2.335-6.419-5.603 5.603 2.777-1.023a.705.705 0 01.91.42.707.707 0 01-.42.91l-3.527 1.3a.706.706 0 01-.91-.42l-.001-.012-5.937 5.937 14.625-5.39a.706.706 0 00.42-.906zm-.165-11.594L22.46.207a.709.709 0 00-1.001 0L.208 21.457a.709.709 0 000 1.002l11.333 11.333a.711.711 0 001.002.001l21.25-21.25a.71.71 0 000-1.003zM8.293 19.627L5.46 22.46a.712.712 0 01-1.003 0 .709.709 0 010-1.002l2.833-2.833a.709.709 0 011.003 1.002zm12.233.9c-.502.5-1.183.741-1.941.741-1.253 0-2.716-.655-3.94-1.88-.895-.896-1.524-1.967-1.77-3.015-.271-1.17-.047-2.186.631-2.866.679-.68 1.696-.904 2.866-.63 1.048.244 2.12.872 3.015 1.769 1.967 1.966 2.469 4.55 1.139 5.88zm9.016-7.984l-2.833 2.834a.712.712 0 01-1.003 0 .709.709 0 010-1.002l2.833-2.833a.709.709 0 011.003 1.001z" fill="url(#paint0_linear_12:166)"/></svg><svg fill="none" viewBox="0 0 32 31" id="tron" xmlns="http://www.w3.org/2000/svg"><path d="M15.397 15.561l-2.383 14.524c-.127.768.836 1.231 1.374.66l15.825-16.802c.52-.552.032-1.439-.722-1.31l-13.44 2.278a.793.793 0 00-.654.65z" fill="url(#fpaint0_linear_12:109)"/><path d="M14.37 10.752l6.929-8.681c.402-.504.057-1.244-.593-1.273L2.372.001c-.762-.033-1.133.903-.55 1.387l11.405 9.48a.807.807 0 001.143-.116z" fill="url(#fpaint1_linear_12:109)"/><path d="M31.762 7.79l-5.535-5.383a.807.807 0 00-1.19.073l-5.836 7.312c-.452.567.043 1.384.764 1.262l11.37-1.928a.783.783 0 00.427-1.335z" fill="url(#fpaint2_linear_12:109)"/><path d="M.053 5.962l8.46 22.594c.284.76 1.407.652 1.538-.147l2.248-13.695a.78.78 0 00-.274-.727L1.318 5.088c-.627-.52-1.549.116-1.265.874z" fill="url(#fpaint3_linear_12:109)"/><defs><linearGradient id="fpaint0_linear_12:109" x1="7.539" y1="0" x2="34.426" y2="7.727" gradientUnits="userSpaceOnUse"><stop stop-color="#E2F685"/><stop offset="1" stop-color="#8AF9AD"/></linearGradient><linearGradient id="fpaint1_linear_12:109" x1="7.539" y1="0" x2="34.426" y2="7.727" gradientUnits="userSpaceOnUse"><stop stop-color="#E2F685"/><stop offset="1" stop-color="#8AF9AD"/></linearGradient><linearGradient id="fpaint2_linear_12:109" x1="7.539" y1="0" x2="34.426" y2="7.727" gradientUnits="userSpaceOnUse"><stop stop-color="#E2F685"/><stop offset="1" stop-color="#8AF9AD"/></linearGradient><linearGradient id="fpaint3_linear_12:109" x1="7.539" y1="0" x2="34.426" y2="7.727" gradientUnits="userSpaceOnUse"><stop stop-color="#E2F685"/><stop offset="1" stop-color="#8AF9AD"/></linearGradient></defs></svg></svg>